<svg version="1.2" xmlns="http://www.w3.org/2000/svg" viewBox="0 0 1563 1563" width="24" height="24">
	<title>Black and Grey Minimalist Simple Modern Square Hipster Stone Logo</title>
	<style>
		.s0 { opacity: 1;fill: #003875 } 
	</style>
	<g id="Background">
		<path id="Path 1" class="s0" d="m758.8 250.1c-3.2 0.5-8.2 2-11 3.4-2.9 1.3-6 2.5-6.8 2.5-0.9 0-3.4 1.2-5.5 2.6-2.2 1.5-5.6 3.4-7.5 4.4-1.9 1-4.5 3-5.7 4.4-1.3 1.4-2.6 2.6-3 2.6-0.5 0-4 3.7-7.9 8.3-4 4.5-8 10.2-9 12.7-1 2.5-2.6 5.6-3.6 7-1 1.4-3 7.4-4.3 13.5-1.3 6.1-2.4 12.9-2.5 15.3 0 3.9 0.2 4.3 3.3 5.2 2 0.7 29.6 1 76.5 1 62.8 0 73.7-0.2 76.7-1.5 3.2-1.4 3.5-1.8 3-4.7-0.3-1.8-1.5-8.2-2.6-14.3-1.4-7.1-3-12.2-4.5-14.5-1.3-1.9-2.9-5.1-3.5-7-0.7-1.9-2.6-5.2-4.3-7.3-1.7-2.1-6.9-7.6-11.6-12.3-4.7-4.6-9-8.4-9.5-8.4-0.5 0-2.5-1.2-4.2-2.5-1.8-1.4-5.7-3.4-8.5-4.4-2.9-1.1-7.9-2.9-11-4-4-1.5-9.1-2.2-16.5-2.5-6-0.3-13.4-0.1-16.5 0.5zm-92 96.8c-3.2 2.8-3.3 2.9-1.8 6.1 0.8 1.8 2.4 3.9 3.5 4.7 1.7 1.1 19.7 1.3 103.3 1.3h101.2c3.9-4.3 5.3-6.4 5.7-7.5 0.4-1.4-0.4-2.8-2.6-4.7l-3.1-2.8h-203zm42.6 20.8c-1.8 0.3-4 1.4-5 2.5-1.7 1.9-1.8 5.2-1.8 56.7 0 38.5 0.3 55.2 1.1 56.6 0.6 1.2 3.1 2.6 5.7 3.3 2.6 0.7 7.5 1.2 10.9 1.2 5.2 0 7-0.5 10.3-2.8l4-2.8c0.4-98.8 0.3-106.8-1-109.4-0.9-1.6-2.9-3.6-4.5-4.5-1.9-0.9-5.5-1.4-9.8-1.3-3.7 0.1-8.2 0.3-9.9 0.5zm54.5 0c-2 0.2-4.5 1.4-5.5 2.5-1.7 1.9-1.8 5.2-2.1 56.7l-0.3 54.6c4.9 6 4.9 6 15.6 6 10.4 0 10.7 0 13.1-2.7l2.4-2.8c-0.1-81-0.4-106.2-0.8-108.3-0.4-2.2-1.5-4.3-2.5-4.8-0.9-0.5-5-1-9-1.3-4-0.2-8.9-0.2-10.9 0.1zm50.4 0.8c-2 0.9-3.8 2.9-4.7 5-1.3 3-1.5 11.2-1.3 56.2l0.3 52.7c7.7 5.5 8.5 5.7 16.5 5.4 4.6-0.2 9.8-1 11.4-1.8 2-1 3.2-2.6 3.8-5 0.5-1.9 0.8-27.2 0.6-56.2-0.3-51.1-0.4-52.8-2.3-54.8-1.7-1.7-3.7-2.1-11.5-2.5-7.3-0.4-10.3-0.2-12.8 1zm-147.2 135.8c-1.6 1.7-2.9 4-3 5 0 1 1.5 2.7 3.7 4l3.8 2.2h201.4l6.6-6.3c-3.3-5.2-5-7-5.9-7.4-0.9-0.4-47.1-0.8-102.7-0.8h-101zm-101.6 45c-1.1 0.7-2.4 1.7-3 2.4-0.5 0.6-3.2 1.9-6 2.8-2.7 0.8-5.7 2.4-6.6 3.5-0.9 1.1-3.8 2.7-6.5 3.5-2.7 0.8-5.5 2.3-6.4 3.2-0.8 0.9-3.8 2.7-6.7 4-2.9 1.3-6.3 3.3-7.5 4.4-1.2 1.1-2.8 2-3.5 2-0.7 0-2.5 1.1-4 2.4-1.5 1.3-4.8 3.4-7.3 4.6-2.4 1.2-5.1 2.9-6 3.7-0.8 0.8-3.7 2.8-6.3 4.6-2.7 1.8-6.4 4.1-8.1 5.2-1.8 1.1-4.9 3.4-6.8 5-2 1.7-5.4 4.3-7.4 5.8-2.1 1.6-6.6 4.9-9.9 7.3-3.3 2.5-7.7 6-9.8 7.7-2.1 1.8-5.5 4.7-7.5 6.5-2 1.7-5.2 4.5-7.2 6.2-1.9 1.6-13.7 13.2-26.2 25.7-12.5 12.6-23.8 23.9-25.1 25.3-1.3 1.4-5.4 6.1-9.3 10.5-3.8 4.4-9.1 10.9-11.7 14.5-2.6 3.6-5.8 7.9-7.2 9.5-1.3 1.7-4.1 5.1-6.2 7.6-2.1 2.6-4.7 6.1-5.8 7.9-1.1 1.8-3.1 5.2-4.5 7.5-1.3 2.3-3.5 5.5-4.8 7.1-1.2 1.6-3.3 4.5-4.7 6.4-1.3 1.9-3.4 5.3-4.5 7.5-1.2 2.2-3.3 5.2-4.6 6.8-1.3 1.5-2.3 3.3-2.3 4 0 0.6-1.5 3.5-3.4 6.2-1.8 2.8-3.7 6.1-4.1 7.5-0.5 1.4-1.8 3.9-2.9 5.5-1.2 1.7-4.3 7.3-6.9 12.5-2.6 5.2-4.7 10-4.7 10.5 0 0.6-1 2.6-2.3 4.5-1.3 1.9-3 5.3-3.7 7.5-0.7 2.2-2.3 5.6-3.6 7.5-1.3 1.9-3.1 6-3.8 9-0.8 3-2.4 7.1-3.5 9-1.1 1.9-2.7 6.1-3.6 9.3-0.8 3.1-2.4 7.2-3.5 9-1 1.7-2.6 6.2-3.5 10-0.8 3.7-2.4 8.4-3.5 10.5-1 2-2.4 6.6-3 10.2-0.7 3.6-2.3 9.1-3.6 12.3-1.4 3.1-2.9 9.2-3.5 13.5-0.6 4.2-2.1 11.1-3.5 15.2-1.3 4.1-3.1 13.1-4 20-0.8 6.9-2.1 14.5-2.9 17-0.7 2.5-1.8 9.7-2.5 16-0.6 6.3-1.5 19.2-2.1 28.5l-1 17c5 4.5 5.2 4.5 39.8 4.5 27.8 0 35.1-0.3 36.7-1.3 1.5-1.1 2.3-3.1 2.9-7.8 0.4-3.5 1.6-11.1 2.6-16.9 1.1-5.8 2.4-17 3.1-25 0.6-8 2.2-18.5 3.5-23.5 1.3-4.9 2.8-13.9 3.5-20 0.6-6 2.2-13.9 3.4-17.5 1.2-3.6 2.8-10.5 3.5-15.5 0.8-4.9 2.2-11 3.3-13.5 1-2.5 2.7-8.3 3.7-13 1-4.7 2.7-10.3 3.8-12.5 1.1-2.2 2.6-6.7 3.2-10 0.7-3.3 2.1-7.7 3.2-9.7 1-2.1 2.6-6.6 3.4-10 0.9-3.5 2.5-7.6 3.5-9.3 1-1.6 2.5-5.9 3.4-9.5 0.9-3.6 2.5-7.8 3.5-9.5 0.9-1.6 2.4-5.5 3.3-8.5 0.9-3 3-8.1 4.7-11.2 1.7-3.2 3-6.6 3-7.5 0-1 1.2-3.4 2.6-5.3 1.3-1.9 3.2-5.7 4.1-8.5 0.9-2.7 2.4-5.9 3.3-7 1-1.1 2.5-4 3.5-6.5 1-2.5 2.6-5.6 3.7-7 1.1-1.4 2.4-4.1 3-6 0.6-1.9 2.1-4.6 3.3-6 1.2-1.4 2.7-4.3 3.5-6.5 0.7-2.2 2.6-5.8 4.2-8 1.6-2.2 2.9-4.4 2.8-5 0-0.5 1.6-3.2 3.5-6 2-2.7 3.5-5.4 3.5-6 0-0.5 1.2-2.6 2.8-4.5 1.5-2 3.4-5.1 4.2-7 0.8-1.9 2.7-5 4.2-6.7 1.6-1.8 2.9-3.9 2.9-4.5 0-0.7 1.4-3.2 3.2-5.4 1.8-2.3 4-5.5 5-7 1-1.6 2.8-4.5 4.2-6.4 1.3-1.9 3.1-4.3 4-5.2 0.8-1 2.7-3.7 4.2-6 1.5-2.4 3.5-5.2 4.4-6.3 1-1.1 3.7-4.2 6-7 2.2-2.7 6.5-7.7 9.4-11 2.9-3.3 7.5-8.7 10.3-12 2.7-3.3 10.5-11.8 17.4-18.9 6.8-7.1 20-19.6 29.3-27.7 9.4-8.2 18.5-16.1 20.4-17.6 1.8-1.5 5-4.4 7.1-6.3 2.1-1.9 5.3-4.3 7.2-5.3 2-1.1 3-2.1 2.3-2.6-0.5-0.5-2.1-1.1-3.5-1.4-1.3-0.3-3.4-0.1-4.5 0.5zm406.8-0.1c-1.5 0.6-2 1.3-1.4 2.2 0.5 0.6 2.3 1.9 4.1 2.7 1.7 0.8 3.4 2.3 3.6 3.3 0.2 0.9 1.5 2.2 2.7 2.9 1.2 0.6 4.2 2.7 6.6 4.7 2.4 2 10 8.5 17 14.5 6.9 6 19.4 17.7 27.7 26 8.3 8.3 20 20.8 26 27.8 6 7 14 16.4 17.7 21 3.7 4.6 8.2 10.3 10.1 12.8 1.8 2.5 3.9 5.6 4.6 7 0.8 1.4 2.2 3.4 3.2 4.5 1 1.1 2.9 3.6 4.3 5.5 1.4 1.9 3.6 5.5 4.9 8 1.3 2.5 3 5.2 3.9 6 0.8 0.8 2.7 3.8 4.2 6.5 1.5 2.8 4.1 7.5 5.9 10.7 1.7 3.1 3.9 6.4 4.8 7.5 0.9 1 2.4 3.6 3.3 5.8 0.9 2.2 2.5 4.9 3.4 6 1 1.1 2.4 3.6 3.1 5.5 0.8 1.9 2.4 4.9 3.6 6.5 1.2 1.7 2.6 4.6 3.3 6.5 0.6 1.9 1.9 4.6 3 6 1.1 1.4 3 5 4.3 8 1.4 3 3 5.8 3.6 6.3 0.7 0.4 2 3.1 2.9 6 0.9 2.8 2.4 6.3 3.4 7.7 1 1.4 2.7 5 3.7 8 1.1 3 2.7 6.6 3.6 8 0.9 1.4 2.3 5 3.2 8 0.9 3 2.5 6.9 3.5 8.5 1 1.7 2.5 5.9 3.4 9.5 1 3.6 2.5 7.9 3.5 9.5 1.1 1.7 2.6 5.9 3.6 9.5 0.9 3.6 2.5 8.1 3.5 10 0.9 1.9 2.5 6.5 3.4 10.3 0.8 3.7 2.4 8.4 3.4 10.5 1.1 2 2.7 7.5 3.7 12.2 0.9 4.7 2.5 10.3 3.5 12.5 1 2.2 2.5 8.3 3.4 13.5 0.8 5.2 2.4 11.9 3.5 14.8 1.1 2.8 2.5 9.8 3.2 15.5 0.6 5.6 2.1 14.3 3.4 19.2 1.3 5 2.6 12.4 2.9 16.5 0.4 4.1 1.1 11.6 1.7 16.5 0.6 5 1.6 11.7 2.4 15 0.7 3.3 1.8 11.2 2.4 17.5 0.8 8.3 1.6 12 2.9 13.3 1.5 1.6 4.3 1.8 35.9 1.7 30.5 0 34.6-0.2 37.9-1.7l3.6-1.8c-1-9.3-2-21.9-2.8-34-0.9-13.3-2.2-25.1-3.4-30-1-4.4-2.7-13.4-3.6-20-0.9-6.6-2.5-14.5-3.6-17.5-1-3-2.6-9.8-3.4-15-0.9-5.2-2.5-11.5-3.6-14-1.1-2.5-2.9-8.1-3.8-12.5-1-4.4-2.5-9.3-3.3-11-0.9-1.6-2.3-5.9-3.2-9.5-0.9-3.6-2.5-7.8-3.5-9.5-0.9-1.6-2.5-5.7-3.5-9-1-3.3-2.8-8-4.2-10.5-1.3-2.5-2.4-5.2-2.4-6 0-0.8-1.8-5.3-4-10-2.3-4.7-5.4-11.2-7-14.5-1.6-3.3-3.8-8-4.9-10.5-1.2-2.5-3.9-7.6-6-11.5-2.2-3.8-5-9.2-6.3-12-1.4-2.7-3.2-5.7-4.1-6.5-1-0.8-2.2-3.1-2.8-5-0.6-1.9-2.4-5-4-6.7-1.6-1.8-2.9-3.9-2.9-4.5 0-0.7-1.4-3.2-3.2-5.4-1.8-2.3-4.2-5.7-5.3-7.5-1.1-1.8-3.3-5.3-5-7.9-1.6-2.6-4.6-7.2-6.7-10.4-2.1-3.1-4.1-5.6-4.5-5.6-0.4 0-1.9-1.8-3.3-4-1.3-2.2-2.7-4-3-4-0.2 0.1-1.9-2.1-3.7-4.7-1.8-2.6-4.4-6.4-5.8-8.3-1.4-1.9-5.4-6.6-8.8-10.3-3.4-3.8-9.1-10.1-12.7-14-3.5-4-13.2-14-21.5-22.2-8.2-8.3-21.9-21.1-30.5-28.6-8.5-7.4-18.4-15.5-22-18.1-3.5-2.6-7.4-5.5-8.5-6.6-1.1-1-3.4-2.7-5.2-3.6-1.8-0.9-3.2-1.9-3.2-2.3 0-0.5-2.3-2.4-5.2-4.3-2.8-1.9-7.1-4.6-9.4-6-2.3-1.4-5.1-3.3-6.1-4.2-1-0.9-3.7-2.7-6-4-2.2-1.3-5.5-3.2-7.3-4.3-1.8-1.1-4.7-3-6.4-4.2-1.7-1.3-5.4-3.4-8.2-4.7-2.7-1.3-5.6-3.1-6.5-4-0.8-0.9-3.5-2.3-6-3.1-2.4-0.8-5.4-2.4-6.5-3.5-1.1-1.1-4.2-2.8-7-3.7-2.7-0.9-6.2-2.6-7.7-3.9-1.5-1.3-3.3-2.4-4-2.3-0.7 0-2.3 0.5-3.5 1zm-308.9 9.4c-0.5 0.8-3.4 2.1-6.4 3-3 0.8-5.8 2-6.2 2.5-0.4 0.6-3.1 2.2-6 3.6-2.9 1.5-6.6 3.7-8.3 4.9-1.6 1.2-4.5 2.8-6.3 3.6-1.9 0.8-3.9 2-4.5 2.8-0.6 0.7-2.7 2.1-4.7 3.1-1.9 1-4.1 2.4-5 3.2-0.8 0.8-3.3 2.7-5.5 4.2-2.2 1.4-5.5 3.8-7.5 5.1-1.9 1.4-4.4 3.4-5.5 4.4-1.1 1-3 2.3-4.2 3-1.2 0.6-7.8 5.9-14.5 11.8-6.7 5.9-15.3 13.6-19.1 17.2-3.8 3.6-10.5 10.4-15 15-4.5 4.6-9.7 10.1-11.7 12.1-1.9 2.1-6 6.6-9.1 10.1-3.2 3.5-7.1 8.2-8.8 10.4-1.7 2.2-4.3 5.8-5.7 8-1.5 2.2-3.7 5-4.8 6.1-1.1 1.2-3.5 4.1-5.3 6.5-1.8 2.4-4.8 6.5-6.8 9.2-1.9 2.6-4.4 6.5-5.5 8.7-1.1 2.2-2.4 4-3 4-0.5 0-1.6 1.5-2.4 3.3-0.8 1.7-2.8 5-4.5 7.2-1.7 2.2-3.4 4.9-3.7 6-0.3 1.1-1.4 2.9-2.4 4-1 1.1-2.8 4.1-3.9 6.8-1.1 2.6-2.6 5-3.3 5.5-0.6 0.4-2 2.7-3.1 5.2-1.1 2.5-3.3 6.3-4.8 8.5-1.6 2.2-2.9 4.5-2.8 5 0 0.6-1.4 2.8-3.1 5-1.6 2.2-3.5 5.6-4.1 7.5-0.6 1.9-1.9 4.4-2.9 5.5-1 1.1-2.7 4.5-3.9 7.5-1.2 3-2.7 6.2-3.5 7-0.8 0.8-2.4 4.2-3.6 7.5-1.1 3.3-2.6 6.7-3.4 7.5-0.7 0.8-2.1 4-3.1 7-1 3-2.6 6.9-3.6 8.5-1 1.7-2.6 5.7-3.4 9-0.9 3.3-2.5 7.4-3.5 9-1 1.7-2.6 5.9-3.5 9.5-0.9 3.6-2.5 8.2-3.6 10.3-1 2-2.6 7-3.5 11-0.9 3.9-2.4 8.8-3.4 10.7-0.9 1.9-2.4 7.3-3.3 12-0.9 4.7-2.4 10.5-3.5 13-1.1 2.5-2.5 8.3-3.1 13-0.6 4.7-2.2 12.6-3.5 17.5-1.3 5-3.1 15.3-4 23-0.8 7.7-2.2 16.3-3 19-0.9 2.8-2 10-2.5 16-0.6 6.1-1.5 16.2-2 22.5-0.9 11.4-0.9 11.5 1.5 13.8l2.4 2.2c122.1-0.5 131.2-0.7 132.5-2 1.2-1.2 1.6-5.2 2-20.5 0.3-10.4 0.8-28.7 1.1-40.5 0.3-11.8 1.2-26.2 2-32 0.7-5.8 2-15.9 2.8-22.5 0.8-6.6 2-16.9 2.5-23 0.6-6 1.9-14.6 3-19 1.2-4.4 2.5-12.3 3.1-17.5 0.6-5.2 2.2-13.5 3.5-18.5 1.4-4.9 3-12.4 3.6-16.5 0.7-4.1 2.2-10.2 3.5-13.5 1.2-3.3 2.8-9.6 3.5-14 0.6-4.4 2-9.7 3.1-11.7 1-2.1 2.6-7.1 3.5-11 0.9-4 2.5-9 3.5-11 1-2.1 2.6-6.8 3.4-10.5 0.9-3.8 2.5-8.3 3.5-10 1.1-1.8 2.6-5.9 3.4-9 0.8-3.2 2.5-7.8 3.9-10.3 1.3-2.5 2.9-6.7 3.6-9.5 0.7-2.7 2-6.2 3-7.7 1-1.5 2.5-4.9 3.4-7.5 0.8-2.6 2.4-5.9 3.4-7.3 1.1-1.4 2.8-5 3.7-8 1-3 2.4-6.2 3.1-7 0.8-0.8 2.3-4 3.5-7 1.2-3 2.9-6.4 3.9-7.5 0.9-1.1 2.5-4.1 3.4-6.7 0.9-2.7 2.1-5 2.6-5.3 0.6-0.3 2.6-3.8 4.6-7.7 1.9-4 5-9.8 6.9-12.8 1.9-3 4.7-7.7 6.1-10.5 1.5-2.7 3.8-6.2 5.1-7.7 1.3-1.6 2.3-3.5 2.3-4.3 0-0.8 1.6-3.3 3.5-5.5 2-2.2 3.5-4.4 3.5-5 0-0.5 1.5-2.7 3.3-4.9 1.8-2.1 4-5.2 5-6.7 1-1.6 2.9-4.5 4.3-6.4 1.4-1.9 3.8-5.1 5.4-7 1.7-1.9 4.5-5.2 6.3-7.3 1.8-2 4.4-5 5.8-6.5 1.5-1.5 2.9-3.9 3.3-5.4 0.4-1.9 1.5-3 3.1-3.3 1.4-0.3 2.5-0.9 2.5-1.5 0-0.5-1.7-1-3.8-1-2.4 0-4.3 0.6-4.8 1.5zm212.4 0.5c1.2 1.1 2.3 2.8 2.3 3.8 0 0.9 1.4 3.3 3 5.2 1.6 1.9 4.1 4.9 5.5 6.5 1.4 1.7 4 4.8 5.8 7 1.8 2.2 5.3 6.9 7.9 10.5 2.6 3.6 5.8 7.9 7.2 9.5 1.3 1.7 2.5 3.5 2.5 4 0 0.6 1.1 2.2 2.5 3.8 1.4 1.5 3.7 5 5 7.7 1.4 2.8 3 5.2 3.5 5.5 0.6 0.3 2 2.6 3.1 5.3 1.2 2.6 3.2 5.9 4.5 7.5 1.4 1.5 2.4 3.4 2.4 4.2 0 0.8 1.1 2.7 2.4 4.3 1.4 1.5 3.2 4.7 4.2 7.2 1 2.5 2.8 5.9 4 7.5 1.2 1.7 2.8 4.8 3.5 7 0.8 2.2 2.3 5.1 3.5 6.5 1.2 1.4 2.7 4.3 3.4 6.5 0.8 2.2 2.2 5.1 3.2 6.5 1.1 1.4 2.8 5.2 3.8 8.5 1.1 3.3 2.7 6.7 3.6 7.5 0.9 0.8 2.2 3.5 2.9 6 0.7 2.5 2.4 6.5 3.8 9 1.4 2.5 2.9 6.1 3.2 8 0.4 1.9 2 6 3.5 9 1.5 3 3.3 7.8 4 10.5 0.6 2.8 2 6.4 3.1 8 1 1.7 2.6 6.2 3.5 10 0.9 3.9 2.5 8.7 3.5 10.8 1.1 2 2.6 6.9 3.4 10.7 0.9 3.9 2.4 8.7 3.5 10.8 1 2 2.6 7.8 3.4 12.7 0.9 5 2.5 11 3.5 13.5 1.1 2.5 2.5 7.9 3.1 12 0.7 4.1 2.3 11.3 3.6 16 1.3 4.7 3 13.9 3.9 20.5 0.8 6.6 2.1 13.8 2.9 16 0.8 2.2 1.9 8.1 2.5 13 0.6 5 1.3 12.6 1.7 17 0.3 4.4 1.4 13 2.5 19 1 6.1 2.3 17.3 2.9 25 0.6 7.7 1.4 29.9 1.8 49.3 0.7 32.6 0.9 35.5 2.6 37 1.7 1.6 7.5 1.7 67.6 1.7 60.6 0 66-0.1 67.7-1.7 1.6-1.4 1.7-2.6 1.2-7.5-0.4-3.2-1.2-13.2-1.8-22.3-0.6-9.9-1.8-19.6-3-24.2-1.1-4.3-2.8-14.2-3.7-22-0.8-7.9-2.4-17-3.5-20.3-1.1-3.3-2.6-10.5-3.4-16-0.9-5.5-2.4-12-3.5-14.5-1.1-2.5-2.6-8.1-3.4-12.5-0.7-4.4-2.2-9.8-3.3-12-1.1-2.2-2.6-6.7-3.2-10-0.7-3.3-2.5-8.9-4-12.5-1.6-3.6-3.1-8.3-3.5-10.5-0.4-2.2-2.1-6.5-3.7-9.5-1.6-3-2.9-6.5-2.9-7.7 0-1.3-1.2-4.7-2.8-7.5-1.5-2.9-3.4-7.1-4.1-9.3-0.7-2.2-2.3-5.8-3.5-8-1.3-2.2-2.9-5.8-3.6-8-0.7-2.2-2.3-5.3-3.5-7-1.2-1.6-2.7-4.6-3.3-6.5-0.6-1.9-1.9-4.6-3-6-1.1-1.4-2.7-4.5-3.7-7-1-2.5-2.5-5.4-3.5-6.5-0.9-1.1-3-4.4-4.6-7.3-1.6-2.9-3.8-7-4.9-9-1.1-2-3.4-5.9-5.2-8.7-1.8-2.7-3.3-5.6-3.3-6.2 0-0.7-1.2-2.8-2.7-4.5-1.5-1.8-3.6-4.9-4.5-6.8-1-1.9-2.9-5.1-4.2-7-1.3-1.9-3.5-4.8-4.7-6.4-1.3-1.6-3.5-4.8-4.9-7.1-1.3-2.3-4-6.5-6-9.4-1.9-2.8-3.8-5.1-4.2-5.1-0.4 0-1.4-1.3-2.3-3-0.8-1.6-2.2-3.8-3.2-4.7-1-1-3.4-4-5.3-6.6-1.9-2.6-4.4-6.1-5.5-7.6-1.1-1.5-3.3-4.1-5-5.8-1.6-1.7-5.9-6.3-9.5-10.4-3.5-4-13.2-14.1-21.4-22.4-8.2-8.2-18.8-18.3-23.5-22.3-4.7-4-10-8.5-11.7-10-1.7-1.5-5.7-4.5-8.8-6.7-3.2-2.2-7.8-5.7-10.2-7.7-2.4-2.1-4.7-3.8-5.1-3.8-0.4 0.1-2.8-1.5-5.3-3.5-2.4-1.9-5-3.5-5.7-3.5-0.7 0-2.7-1.3-4.5-3-1.8-1.6-3.7-2.9-4.3-2.9-0.5 0-3.7-1.8-7-4-3.3-2.2-6.5-4-7.2-4.1-0.7 0-2.5-1.1-4-2.4-1.5-1.3-5-3-7.8-3.7-2.7-0.7-5.9-2.1-7-3.1-1.1-0.9-3.1-1.8-4.5-1.8h-2.5zm-137.8 6.8c-1.4 1.5-6.6 6.6-11.5 11.4-4.9 4.7-11.7 11.7-15.1 15.5-3.4 3.7-7.5 8.6-9.2 10.8-1.7 2.2-4.7 6.1-6.6 8.7-1.9 2.6-3.8 4.8-4.3 4.8-0.4 0-1.6 1.6-2.7 3.5-1.1 1.9-2.6 3.8-3.3 4-0.6 0.3-2.3 2.6-3.7 5.2-1.4 2.6-4.6 7.5-7 10.8-2.5 3.3-5.4 7.8-6.6 10-1.2 2.2-3.2 5.3-4.5 7-1.3 1.6-2.4 3.5-2.4 4.2 0 0.7-1.1 2.5-2.4 4-1.3 1.5-3.6 5.3-5.1 8.3-1.5 3-4.1 8.2-5.8 11.6-1.8 3.4-3.7 6.8-4.4 7.5-0.6 0.8-1.9 3.4-2.8 5.9-0.9 2.5-2.6 6.1-3.9 8-1.3 1.9-2.8 5.3-3.4 7.5-0.6 2.2-2 5.1-3 6.5-1.1 1.4-2.7 5-3.6 8-0.9 3-2.6 6.9-3.6 8.7-1.1 1.8-2.7 5.9-3.6 9-0.9 3.2-2.4 7.1-3.4 8.8-1 1.6-2.6 5.9-3.5 9.5-0.9 3.6-2.7 8.5-3.9 11-1.3 2.5-2.8 7.2-3.6 10.5-0.7 3.3-2 7.6-3 9.5-1 1.9-2.5 7.1-3.4 11.5-0.9 4.4-2.6 10-3.7 12.5-1.1 2.5-2.6 8.5-3.4 13.5-0.8 4.9-2.4 11.3-3.5 14.2-1.1 2.9-2.7 10.1-3.5 16-0.8 5.9-2.3 13.5-3.4 16.8-1 3.3-2.6 12.7-3.5 21-0.9 8.2-2.2 17.2-3 20-0.8 2.7-1.9 9.5-2.5 15-0.6 5.5-1.6 19-2.2 30-0.6 11-1.5 23.1-2 27-0.5 3.8-1.2 16.8-1.6 28.7l-0.8 21.7c7 2.9 17.9 3.1 91.2 3.1 79.1 0.1 83.9 0 85.5-1.7 1.6-1.7 1.7-15.8 1.8-239.1 0-208.9-0.2-237.6-1.5-240.2-0.8-1.7-1.6-3-1.8-3-0.1 0-1.4 1.3-2.8 2.8zm63-0.6c-1.2 1.9-1.4 38.7-1.7 239.8-0.3 237.3-0.3 237.5 1.8 239.7l2 2.3c160.4-0.5 171.9-0.7 173.5-2 1.7-1.4 1.7-3.1 1.1-23-0.4-11.8-1.3-27.1-2.1-34-0.8-6.9-1.9-20.8-2.5-31-0.6-10.2-1.6-22.1-2.1-26.5-0.6-4.4-1.7-10.5-2.5-13.5-0.8-3-2.1-11.8-2.9-19.5-0.8-7.7-2.4-16.5-3.4-19.5-1.1-3-2.6-10.5-3.4-16.5-0.9-6.1-2.5-13.4-3.6-16.3-1.2-2.9-2.7-9.2-3.5-14-0.8-4.8-2.4-10.7-3.5-13.2-1.1-2.5-2.7-7.9-3.4-12-0.8-4.1-2.4-9.3-3.5-11.5-1.1-2.2-2.5-6.7-3.2-10-0.7-3.3-2.3-8.2-3.6-10.8-1.3-2.6-2.9-7.1-3.5-10-0.6-2.9-2.2-7-3.4-9.2-1.3-2.2-2.9-6-3.5-8.5-0.6-2.5-2.2-6.3-3.5-8.5-1.2-2.2-2.9-6.5-3.8-9.5-0.8-3-2.3-6.2-3.2-7-0.9-0.8-2.5-4.2-3.5-7.5-1-3.3-2.6-6.7-3.5-7.5-0.9-0.8-2.2-3.5-3-6-0.8-2.5-2.6-6.1-4-8-1.4-1.9-3-5.1-3.6-7-0.7-1.9-2-4.4-3-5.5-1-1.1-2.7-4.3-3.9-7-1.2-2.8-3.3-6.3-4.6-7.8-1.3-1.5-2.4-3.2-2.4-3.7 0-0.6-1.5-3.2-3.3-5.9-1.7-2.7-4-6.2-5-7.7-0.9-1.6-2.8-4.5-4.2-6.4-1.3-1.9-3.8-5.3-5.4-7.5-1.7-2.2-3.1-4.5-3.1-5 0-0.6-1.5-2.7-3.3-4.7-1.8-2-4.9-5.9-6.9-8.5-2.1-2.6-5.3-6.8-7.3-9.3-1.9-2.5-5.2-6.5-7.3-8.8-2-2.4-8.4-9.2-14.2-15.1-5.8-5.9-12.6-12.6-15.1-15l-4.6-4.2zm-473 499.5c-2.3 0.2-4.3 1.3-5.8 3.1-1.7 2.1-2.2 3.9-2.1 8.7 0 3.7-0.5 6.7-1.4 8-1.4 1.9-2.9 2-52.9 2.5-43.8 0.4-51.7 0.7-53.1 2-1.1 0.9-1.7 2.9-1.7 5.5 0 2.2 0.7 4.9 1.5 6 1.4 2 2.7 2 558.8 2.2l557.3 0.2c3.8-3.7 4.5-5.6 4.6-7.9 0-2.3-0.8-4.2-2.2-5.5-2-2-3.9-2-52.9-2.5-35.9-0.4-51.1-0.9-52.1-1.7-0.8-0.6-1.7-4.2-2.2-8.5-0.6-6-1.2-7.8-3.3-9.8-2.5-2.5-2.8-2.5-21.7-2.8-10.6-0.2-21.7 0-24.7 0.5-5 0.7-5.7 1.1-7.3 4.3-1 2.1-1.7 5.8-1.7 9.2 0 4.9-0.4 6-2.3 7.3-1.9 1.3-10.6 1.5-64 1.5-53.5 0-61.9-0.2-63.2-1.5-1.1-1.1-1.5-3.6-1.5-8.3 0.1-5.2-0.3-7.1-1.7-8.4-1-0.9-3.3-2.3-5.1-3.2-2.6-1.3-6.8-1.6-23-1.6-15.5-0.1-20.7 0.3-24.2 1.5-2.5 0.9-5.1 2.4-5.7 3.3-0.7 0.9-1.2 4.7-1.2 8.7 0 4.4-0.5 7.4-1.3 8.2-1 1-19.8 1.2-84.5 1-67.1-0.2-83.5-0.5-84.5-1.5-0.7-0.8-1.5-4.7-1.8-8.8-0.4-5.9-1-7.8-2.8-9.6-2.2-2.3-2.6-2.3-26.2-2.3-23.1 0-23.9 0-26.2 2.1-1.9 1.8-2.4 3.7-3 10-0.4 4.4-1.2 8.3-1.8 8.9-0.7 0.6-30.7 1.1-84.3 1.3-77.7 0.3-83.3 0.2-84.7-1.4-0.9-1.1-1.7-4.7-2-9.2-0.3-4.8-1-7.8-2-8.7-0.8-0.7-3.1-1.8-5-2.4-2.2-0.7-10.9-1.2-23.3-1.1-18.4 0-20 0.1-24.3 2.2-2.7 1.4-4.7 3.1-4.9 4.3-0.2 1.1-0.7 4.7-1 8-0.3 3.3-1.2 6.6-1.8 7.3-1 1-13.2 1.2-63.9 1-40-0.2-63.1-0.7-63.7-1.3-0.6-0.6-1.4-4.4-1.8-8.5-0.5-5.6-1.3-8.2-2.9-10l-2.2-2.5c-32.3-0.2-43.3-0.1-45.3 0.2zm-1 57.9c-2 0.3-4.2 1.2-5 2.1-1.1 1.2-1.5 6.6-1.7 25.2-0.4 21.4-0.2 23.9 1.5 26.9 1.3 2.4 2.7 3.4 5.3 3.9 1.9 0.4 12.5 0.7 23.5 0.6 11 0 20.9-0.3 22-0.6 1.1-0.4 2.8-2.1 3.8-3.9 1.7-3 1.8-5.6 1.5-27-0.3-21.2-0.5-24-2.1-25.5-1.6-1.6-4.1-1.8-23.5-2-11.9 0-23.3 0.1-25.3 0.3zm188.6 1.2c-3.2 1.4-4.2 2.5-4.8 5.2-0.4 1.9-0.7 13-0.7 24.7 0 19 0.2 21.5 1.7 22.9 1 0.9 3.1 2.3 4.8 3.2 2.4 1.3 6.8 1.6 23 1.6 12.5 0 21.6-0.5 24.2-1.2 2.4-0.7 4.7-2.1 5.3-3.2 0.6-1.2 1-11.7 1-25 0-12.7-0.4-24-0.9-25.3-0.6-1.5-2.2-2.6-5.5-3.5-3-0.8-11.6-1.2-24.4-1.2-16.8 0-20.3 0.3-23.7 1.8zm234-1c-2.8 0.5-4.3 1.4-5.2 3.2-0.9 1.8-1.3 9.1-1.3 26 0 20.7 0.2 23.7 1.8 25.8 1.5 2 3 2.4 12.7 3.3 6 0.6 16.7 0.8 23.7 0.4 7.1-0.3 13.7-1 14.8-1.5 1.1-0.6 2.7-2 3.5-3.3 1.2-1.8 1.5-6.2 1.5-23.2 0-11.6-0.4-22.8-0.8-24.9-0.4-2.3-1.5-4.3-2.7-5-1.2-0.6-10.1-1.1-23-1.2-11.6-0.2-22.8 0-25 0.4zm230 0.7c-2.2 0.8-4.1 1.6-4.3 1.7-0.1 0.2-0.7 2.1-1.2 4.3-0.5 2.2-1 12.9-1 23.7 0 13.8 0.4 20.5 1.2 22.3 0.8 1.6 3 3.2 5.8 4.3 3.6 1.3 7.9 1.7 22.5 1.7 9.9 0 19.7-0.4 21.7-0.8 2.1-0.4 5.1-1.9 6.8-3.2l3-2.5c0-33.8-0.4-42.6-1.3-45.6-1-3.8-1.8-4.7-5-6-2.8-1.1-8.4-1.4-24-1.4-15.2 0.1-21.2 0.4-24.2 1.5zm193.3-0.9c-2 0.3-4.4 1.4-5.5 2.5-1.6 1.9-1.8 4.1-1.8 25.8 0 20.8 0.2 24 1.7 26.4 1.4 2 2.9 2.8 6.5 3.4 2.7 0.4 12.9 0.7 22.8 0.7 9.9 0 19.2-0.3 20.7-0.7 1.6-0.4 3.6-1.9 4.5-3.4 1.4-2.2 1.9-5.5 2.2-16.3 0.2-7.4 0-18.3-0.5-24-0.6-7.7-1.2-11.1-2.5-12.5-1.6-1.9-3.1-2-23.1-2.2-11.7 0-22.9 0.1-25 0.3zm-956.3 75.4c-1.7 0.5-3.6 1.7-4.3 2.7-0.8 1.2-1.2 5.9-1.3 14.8 0 11.4 0.2 13.3 2 15.5l1.9 2.5c1090.5 0 1114.2-0.1 1115.9-1.8 1.6-1.6 1.8-3.7 1.8-16.2 0-12.5-0.2-14.7-1.8-16.2-1.7-1.8-25.4-1.8-556.5-2-324.8-0.1-555.9 0.2-557.7 0.7z"/>
	</g>
</svg>